<svg width="35" height="39" viewBox="0 0 35 39" fill="none" xmlns="http://www.w3.org/2000/svg">
<path fill-rule="evenodd" clip-rule="evenodd" d="M10.1916 0C9.34935 0 8.67142 0.680868 8.67142 1.52315V6.71868C8.67142 7.5639 9.34837 8.24477 10.1916 8.24477C11.032 8.24477 11.7099 7.5639 11.7099 6.71868V4.94705C12.4093 5.44205 12.8241 6.24227 12.8241 7.1002C12.8241 8.55781 11.6453 9.74052 10.1916 9.74052C8.73598 9.74052 7.55718 8.55781 7.55718 7.1002V2.73619H5.69458C4.65664 2.73619 3.66958 2.99836 2.89676 3.61369C2.12491 4.23195 1.63578 5.19064 1.53013 6.28433L0.0118726 30.3319C-0.0595402 31.4373 0.187959 32.5026 0.842414 33.3087C1.49687 34.1168 2.53187 34.6225 3.67741 34.6225H22.3465C22.3348 34.4954 22.3279 34.3682 22.3279 34.2439V32.3363H3.93665C3.37708 32.3363 3.03567 32.1407 2.77839 31.8247C2.52208 31.5107 2.38611 31.0343 2.41839 30.4297L3.38589 11.6687H31.7916L32.5135 25.6705L34.9748 27.3003L33.6454 6.28433C33.5417 5.19064 33.0526 4.23195 32.2807 3.61369C31.5059 2.99836 30.5189 2.73619 29.4809 2.73619H26.5041V1.52315C26.5041 0.680868 25.8271 0 24.9868 0C24.1436 0 23.4656 0.680868 23.4656 1.52315V6.71868C23.4656 7.5639 24.1436 8.24477 24.9868 8.24477C25.8271 8.24477 26.5041 7.5639 26.5041 6.71868V4.94705C27.2026 5.44205 27.6183 6.24227 27.6183 7.1002C27.6183 8.55781 26.4386 9.74052 24.9858 9.74052C23.5331 9.74052 22.3533 8.55781 22.3533 7.1002V2.73619H11.7099V1.52315C11.7099 0.67989 11.032 0 10.1916 0Z" fill="black"/>
<path fill-rule="evenodd" clip-rule="evenodd" d="M7.36843 15.5573H11.1474C11.7011 15.5573 12.1462 16.0033 12.1462 16.559V19.5163C12.1462 20.0719 11.7002 20.519 11.1474 20.519H7.36843C6.81474 20.519 6.36963 20.0719 6.36963 19.5163V16.559C6.36963 16.0033 6.81474 15.5573 7.36843 15.5573Z" fill="black"/>
<path fill-rule="evenodd" clip-rule="evenodd" d="M15.7012 15.5573H19.4792C20.0329 15.5573 20.478 16.0033 20.478 16.559V19.5163C20.478 20.0719 20.0329 20.519 19.4792 20.519H15.7012C15.1465 20.519 14.7024 20.0719 14.7024 19.5163V16.559C14.7024 16.0033 15.1465 15.5573 15.7012 15.5573Z" fill="black"/>
<path fill-rule="evenodd" clip-rule="evenodd" d="M24.033 15.5573H27.811C28.3647 15.5573 28.8098 16.0033 28.8098 16.559V19.5163C28.8098 20.0719 28.3647 20.519 27.811 20.519H24.033C23.4783 20.519 23.0342 20.0719 23.0342 19.5163V16.559C23.0332 16.0033 23.4783 15.5573 24.033 15.5573Z" fill="black"/>
<path fill-rule="evenodd" clip-rule="evenodd" d="M7.36843 23.485H11.1474C11.7011 23.485 12.1462 23.9341 12.1462 24.4907V27.445C12.1462 28.0007 11.7002 28.4497 11.1474 28.4497H7.36843C6.81474 28.4497 6.36963 28.0007 6.36963 27.445V24.4907C6.36963 23.9341 6.81474 23.485 7.36843 23.485Z" fill="black"/>
<path fill-rule="evenodd" clip-rule="evenodd" d="M15.7012 23.485H19.4792C20.0329 23.485 20.478 23.9341 20.478 24.4907V27.445C20.478 28.0007 20.0329 28.4497 19.4792 28.4497H15.7012C15.1465 28.4497 14.7024 28.0007 14.7024 27.445V24.4907C14.7024 23.9341 15.1465 23.485 15.7012 23.485Z" fill="black"/>
<path d="M24.1094 25.2675L24.1006 34.24C24.1006 35.591 25.0965 36.2631 25.9074 35.6663L28.1623 33.9925L29.9545 37.4125C30.3106 38.0934 31.0648 38.3888 31.6488 38.0689L32.9724 37.348C33.5525 37.0281 33.7355 36.2269 33.3794 35.547L31.5911 32.1221L34.5347 31.094C35.2576 30.8416 35.1686 29.6236 34.0544 28.8166L26.6626 23.9224C25.4799 23.1427 24.1123 23.6856 24.1094 25.2675Z" fill="black"/>
</svg>
