<svg width="9" height="10" viewBox="0 0 9 10" fill="none" xmlns="http://www.w3.org/2000/svg">
<path d="M0.9 2.85714H7.2V1.90476H0.9V2.85714ZM0.9 9.52381C0.6525 9.52381 0.440625 9.43056 0.264375 9.24405C0.088125 9.05754 0 8.83333 0 8.57143V1.90476C0 1.64286 0.088125 1.41865 0.264375 1.23214C0.440625 1.04563 0.6525 0.952381 0.9 0.952381H1.35V0H2.25V0.952381H5.85V0H6.75V0.952381H7.2C7.4475 0.952381 7.65938 1.04563 7.83563 1.23214C8.01188 1.41865 8.1 1.64286 8.1 1.90476V4.60714C7.9575 4.53571 7.81125 4.47619 7.66125 4.42857C7.51125 4.38095 7.3575 4.34524 7.2 4.32143V3.80952H0.9V8.57143H3.735C3.7875 8.74603 3.84938 8.9127 3.92063 9.07143C3.99188 9.23016 4.07625 9.38095 4.17375 9.52381H0.9ZM6.75 10C6.1275 10 5.59687 9.76786 5.15812 9.30357C4.71937 8.83929 4.5 8.27778 4.5 7.61905C4.5 6.96032 4.71937 6.39881 5.15812 5.93452C5.59687 5.47024 6.1275 5.2381 6.75 5.2381C7.3725 5.2381 7.90313 5.47024 8.34188 5.93452C8.78063 6.39881 9 6.96032 9 7.61905C9 8.27778 8.78063 8.83929 8.34188 9.30357C7.90313 9.76786 7.3725 10 6.75 10ZM7.50375 8.75L7.81875 8.41667L6.975 7.52381V6.19048H6.525V7.71429L7.50375 8.75Z" fill="#1C1B1F"/>
</svg>
