<svg width="9" height="7" viewBox="0 0 9 7" fill="none" xmlns="http://www.w3.org/2000/svg">
<mask id="mask0_157_1121" style="mask-type:luminance" maskUnits="userSpaceOnUse" x="2" y="0" width="7" height="3">
<path d="M2.05786 0.84082H8.33358V2.3686H2.05786V0.84082Z" fill="white"/>
</mask>
<g mask="url(#mask0_157_1121)">
<path fill-rule="evenodd" clip-rule="evenodd" d="M8.3335 1.60232C8.3335 1.18392 7.99442 0.844727 7.57601 0.844727H2.84098C2.42258 0.844727 2.0835 1.18392 2.0835 1.60232C2.0835 2.02062 2.42258 2.35981 2.84098 2.35981H7.57601C7.99442 2.35981 8.3335 2.02062 8.3335 1.60232ZM7.9547 1.60232C7.9547 1.81152 7.78511 1.98112 7.57601 1.98112H2.84098C2.63189 1.98112 2.46229 1.81152 2.46229 1.60232C2.46229 1.39301 2.63189 1.22352 2.84098 1.22352H7.57601C7.78511 1.22352 7.9547 1.39301 7.9547 1.60232Z" fill="black"/>
</g>
<mask id="mask1_157_1121" style="mask-type:luminance" maskUnits="userSpaceOnUse" x="2" y="3" width="7" height="2">
<path d="M2.05786 3.09085H8.33358V4.64641H2.05786V3.09085Z" fill="white"/>
</mask>
<g mask="url(#mask1_157_1121)">
<path fill-rule="evenodd" clip-rule="evenodd" d="M8.3335 3.87353C8.3335 3.45513 7.99442 3.11594 7.57601 3.11594H2.84098C2.42258 3.11594 2.0835 3.45513 2.0835 3.87353C2.0835 4.29194 2.42258 4.63113 2.84098 4.63113H7.57601C7.99442 4.63113 8.3335 4.29194 8.3335 3.87353ZM7.9547 3.87353C7.9547 4.08284 7.78511 4.25233 7.57601 4.25233H2.84098C2.63189 4.25233 2.46229 4.08284 2.46229 3.87353C2.46229 3.66422 2.63189 3.49473 2.84098 3.49473H7.57601C7.78511 3.49473 7.9547 3.66422 7.9547 3.87353Z" fill="black"/>
</g>
<mask id="mask2_157_1121" style="mask-type:luminance" maskUnits="userSpaceOnUse" x="2" y="5" width="7" height="2">
<path d="M2.05786 5.36862H8.33358V6.92418H2.05786V5.36862Z" fill="white"/>
</mask>
<g mask="url(#mask2_157_1121)">
<path fill-rule="evenodd" clip-rule="evenodd" d="M8.3335 6.14474C8.3335 5.72634 7.99442 5.38715 7.57601 5.38715H2.84098C2.42258 5.38715 2.0835 5.72634 2.0835 6.14474C2.0835 6.56304 2.42258 6.90223 2.84098 6.90223H7.57601C7.99442 6.90223 8.3335 6.56304 8.3335 6.14474ZM7.9547 6.14474C7.9547 6.35394 7.78511 6.52354 7.57601 6.52354H2.84098C2.63189 6.52354 2.46229 6.35394 2.46229 6.14474C2.46229 5.93543 2.63189 5.76594 2.84098 5.76594H7.57601C7.78511 5.76594 7.9547 5.93543 7.9547 6.14474Z" fill="black"/>
</g>
<mask id="mask3_157_1121" style="mask-type:luminance" maskUnits="userSpaceOnUse" x="0" y="0" width="2" height="3">
<path d="M0 0.75H1.72429V2.47971H0V0.75Z" fill="white"/>
</mask>
<g mask="url(#mask3_157_1121)">
<path fill-rule="evenodd" clip-rule="evenodd" d="M0.852703 0.752075C0.382216 0.752075 0.000488281 1.1338 0.000488281 1.60429C0.000488281 2.07456 0.382216 2.4565 0.852703 2.4565C1.32308 2.4565 1.70503 2.07456 1.70503 1.60429C1.70503 1.1338 1.32308 0.752075 0.852703 0.752075ZM0.852703 1.13066C1.1141 1.13066 1.32612 1.3429 1.32612 1.60429C1.32612 1.86568 1.1141 2.07771 0.852703 2.07771C0.591309 2.07771 0.379178 1.86568 0.379178 1.60429C0.379178 1.3429 0.591309 1.13066 0.852703 1.13066Z" fill="black"/>
</g>
<mask id="mask4_157_1121" style="mask-type:luminance" maskUnits="userSpaceOnUse" x="0" y="3" width="2" height="2">
<path d="M0 3.00748H1.72429V4.7297H0V3.00748Z" fill="white"/>
</mask>
<g mask="url(#mask4_157_1121)">
<path fill-rule="evenodd" clip-rule="evenodd" d="M0.852703 3.02298C0.382216 3.02298 0.000488281 3.40471 0.000488281 3.8753C0.000488281 4.34557 0.382216 4.72752 0.852703 4.72752C1.32308 4.72752 1.70503 4.34557 1.70503 3.8753C1.70503 3.40471 1.32308 3.02298 0.852703 3.02298ZM0.852703 3.40167C1.1141 3.40167 1.32612 3.61391 1.32612 3.8753C1.32612 4.13659 1.1141 4.34861 0.852703 4.34861C0.591309 4.34861 0.379178 4.13659 0.379178 3.8753C0.379178 3.61391 0.591309 3.40167 0.852703 3.40167Z" fill="black"/>
</g>
<mask id="mask5_157_1121" style="mask-type:luminance" maskUnits="userSpaceOnUse" x="0" y="5" width="2" height="2">
<path d="M0 5.28528H1.72429V7.00002H0V5.28528Z" fill="white"/>
</mask>
<g mask="url(#mask5_157_1121)">
<path fill-rule="evenodd" clip-rule="evenodd" d="M0.852703 5.29425C0.382216 5.29425 0.000488281 5.67598 0.000488281 6.14646C0.000488281 6.61673 0.382216 6.99868 0.852703 6.99868C1.32308 6.99868 1.70503 6.61673 1.70503 6.14646C1.70503 5.67598 1.32308 5.29425 0.852703 5.29425ZM0.852703 5.67283C1.1141 5.67283 1.32612 5.88507 1.32612 6.14646C1.32612 6.40786 1.1141 6.61988 0.852703 6.61988C0.591309 6.61988 0.379178 6.40786 0.379178 6.14646C0.379178 5.88507 0.591309 5.67283 0.852703 5.67283Z" fill="black"/>
</g>
</svg>
