<svg width="15" height="16" viewBox="0 0 15 16" fill="none" xmlns="http://www.w3.org/2000/svg">
<path d="M4.5 5.6V4H11.25V5.6H4.5ZM4.5 8V6.4H11.25V8H4.5ZM6.75 16H2.25C1.625 16 1.09375 15.7667 0.65625 15.3C0.21875 14.8333 0 14.2667 0 13.6V11.2H2.25V0H13.5V7.22C13.25 7.19333 12.9969 7.20333 12.7406 7.25C12.4844 7.29667 12.2375 7.38 12 7.5V1.6H3.75V11.2H8.25L6.75 12.8H1.5V13.6C1.5 13.8267 1.57188 14.0167 1.71563 14.17C1.85938 14.3233 2.0375 14.4 2.25 14.4H6.75V16ZM8.25 16V13.54L12.3937 9.14C12.5062 9.02 12.6312 8.93333 12.7687 8.88C12.9062 8.82667 13.0438 8.8 13.1813 8.8C13.3313 8.8 13.475 8.83 13.6125 8.89C13.75 8.95 13.875 9.04 13.9875 9.16L14.6813 9.9C14.7813 10.02 14.8594 10.1533 14.9156 10.3C14.9719 10.4467 15 10.5933 15 10.74C15 10.8867 14.975 11.0367 14.925 11.19C14.875 11.3433 14.7938 11.48 14.6813 11.6L10.5562 16H8.25ZM9.375 14.8H10.0875L12.3563 12.36L12.0187 11.98L11.6625 11.62L9.375 14.04V14.8ZM12.0187 11.98L11.6625 11.62L12.3563 12.36L12.0187 11.98Z" fill="black"/>
</svg>
