<svg width="41" height="38" viewBox="0 0 41 38" fill="none" xmlns="http://www.w3.org/2000/svg">
<mask id="mask0_156_554" style="mask-type:luminance" maskUnits="userSpaceOnUse" x="0" y="0" width="41" height="19">
<path d="M0 0H40.4283V18.3498H0V0Z" fill="white"/>
</mask>
<g mask="url(#mask0_156_554)">
<path d="M39.2016 13.3466L32.777 8.61195V2.96466C32.777 2.07967 32.0592 1.36389 31.1773 1.36389H28.5767C27.6927 1.36389 26.9769 2.0807 26.9769 2.96466V4.33674L22.0782 0.727069C21.0148 -0.0574198 19.2756 -0.0574198 18.2122 0.727069L1.08882 13.3466C0.0264228 14.13 -0.202258 15.6447 0.58018 16.7101L1.05292 17.3531C1.83434 18.4196 3.34486 18.6503 4.40623 17.8669L18.2122 7.68799C19.2756 6.90453 21.0148 6.90453 22.0782 7.68799L35.8822 17.8669C36.9456 18.6503 38.4551 18.4186 39.2365 17.3531L39.7113 16.7101C40.4917 15.6447 40.263 14.13 39.2016 13.3466Z" fill="black"/>
</g>
<mask id="mask1_156_554" style="mask-type:luminance" maskUnits="userSpaceOnUse" x="4" y="9" width="33" height="29">
<path d="M4.2002 9.16159H36.2278V38H4.2002V9.16159Z" fill="white"/>
</mask>
<g mask="url(#mask1_156_554)">
<path d="M34.0785 18.7518L22.0743 9.86404C21.0129 9.0775 19.2778 9.0775 18.2164 9.86404L6.21222 18.7518C5.15085 19.5384 4.28125 20.6879 4.28125 21.3114V34.1975C4.28125 36.2895 6.07173 37.9867 8.28163 37.9867H15.6127V26.5875C15.6127 25.7076 16.3326 24.9878 17.2115 24.9878H23.0772C23.956 24.9878 24.6759 25.7076 24.6759 26.5875V37.9867H32.008C34.2169 37.9867 36.0053 36.2895 36.0053 34.1975V21.3114C36.0064 20.6879 35.1398 19.5384 34.0785 18.7518Z" fill="black"/>
</g>
</svg>
