<svg width="24" height="19" viewBox="0 0 24 19" fill="none" xmlns="http://www.w3.org/2000/svg">
<path d="M8.06639 0H8.23237L8.74689 0.102518L10.1079 0.392986L11.4523 0.683453L12.6805 0.939748L14.9046 1.41817L15.7676 1.60612H15.9004L18.6722 1.00809L21.0622 0.495504L23.3029 0.0170863L23.4025 0H23.6349L23.7842 0.0854317L23.9004 0.205036L23.9834 0.375899L24 0.495504V16.7959L23.9668 17.018L23.8672 17.1888L23.7842 17.2572L23.6349 17.3255L22.7884 17.5135L19.6183 18.1969L15.9834 18.9829H15.6846L14.722 18.7779L11.9668 18.1799L11.3693 18.0603L9.85892 17.7356L8.43154 17.4281L8.14938 17.3768L2.15768 18.6583L0.547718 19H0.431535L0.26556 18.9487L0.13278 18.8462L0.033195 18.6754L0 18.5387V2.06745L0.06639 1.89658L0.182573 1.75989L0.381743 1.65737L2.88797 1.11061L6.6888 0.290468L7.73444 0.0683453L8.06639 0ZM7.65145 1.09353L6.95436 1.2473L1.01245 2.52878L0.979253 2.54586L0.962656 17.8894L1.11203 17.8723L5.67635 16.8813L7.66805 16.4541V1.09353H7.65145ZM8.6473 1.11061V16.4541L10.0249 16.7446L11.3693 17.0351L14.7386 17.7698L15.2697 17.8894H15.3527V2.56295L15.2199 2.51169L10.8382 1.57194L9.19502 1.21313L8.71369 1.11061H8.6473ZM22.9378 1.11061L21.4108 1.43525L20.7137 1.58903L16.7469 2.44335L16.3651 2.52878L16.3154 2.58004V17.8894L16.4647 17.8723L18.1909 17.4964L22.1245 16.6421L23.0207 16.4541V1.11061H22.9378Z" fill="url(#paint0_linear_642_17)"/>
<defs>
<linearGradient id="paint0_linear_642_17" x1="12" y1="0" x2="12" y2="19" gradientUnits="userSpaceOnUse">
<stop stop-color="#EC1F27"/>
<stop offset="1" stop-color="#770000"/>
</linearGradient>
</defs>
</svg>
