<svg width="64" height="81" viewBox="0 0 64 81" fill="none" xmlns="http://www.w3.org/2000/svg">
<path d="M31.0265 0H32.489L35.0485 0.0522332L37.7123 0.156699L40.3762 0.313399L42.9357 0.522332L46.592 0.940197L48.7858 1.2536L51.084 1.67146L53.1734 2.14156L55.3149 2.71612L56.673 3.13399L58.1355 3.70855L59.6503 4.38759L60.7472 5.06662L61.4784 5.64118L62.0008 6.16351V6.26798H62.1052L62.5231 6.99924L62.732 7.57381L63.3066 8.46177L63.5678 9.1408L63.62 9.4542V55.4716L63.5155 56.2551L63.2544 56.8819L62.8365 57.4565L62.6276 57.7176H62.5231V57.8221L62.0008 58.1877L61.374 58.5011L60.7994 58.6578H59.9114L59.1802 58.5011L58.6578 58.2922L58.0833 57.8743L57.6132 57.4042L57.1431 56.673L56.9864 56.2551V55.9417L54.9493 56.5685L52.86 57.0908L50.6139 57.5609L48.5246 57.9266L45.9129 58.2922L42.0477 58.7101L39.8539 58.8668L35.2052 59.0757H27.4746L23.3482 58.8668L18.9606 58.4489L16.9235 58.1877L13.5284 57.6654L11.2824 57.1953L9.08857 56.673L7.57381 56.2029L6.79031 55.9417L6.84254 68.1643L7.10371 68.2687L8.20061 68.7911L9.4542 69.2612L11.7002 69.9402L13.7896 70.4103L15.1998 70.6715L18.4905 71.1416L21.3634 71.455L23.1393 71.6117L26.6389 71.8206L28.9894 71.9251H34.3172L37.5034 71.8206L40.1151 71.6639L43.7192 71.3505H44.9205L45.5473 71.5594L46.0696 71.8206L46.5397 72.1862L47.0098 72.6563L47.4277 73.3876L47.6366 74.1711V75.268L47.4277 75.9992L47.0098 76.7305L46.5397 77.2528L46.0696 77.6185L45.4951 77.8796L44.7638 78.0363L43.5102 78.193L41.003 78.402L36.4587 78.6631L35.2052 78.7154H27.4746L23.3482 78.5064L18.9606 78.0886L16.9235 77.8274L14.1552 77.4095L12.7449 77.1484L10.6033 76.6783L8.30507 76.0515L6.79031 75.5814L5.38002 75.0068L4.07419 74.38L3.23846 73.8577L2.61166 73.3876L2.08933 72.9175L1.67146 72.5519L1.0969 71.9251L0.626798 71.1416L0.365632 70.567L0.104466 69.7313L0.0522332 69.5223L0 9.66313L0.104466 8.9841L0.365632 8.14837L0.887964 7.15594L1.30583 6.58138L1.93263 5.90235L2.35049 5.48448L3.08176 4.96215L4.07419 4.38759L4.90992 3.96972L5.90235 3.55185L7.31264 3.02952L9.9243 2.29826L12.0659 1.77593L14.4686 1.30583L16.6624 0.940197L18.6995 0.679031L21.5201 0.417865L24.7063 0.208933L27.0045 0.104466L31.0265 0ZM31.3921 6.73808L28.7805 6.79031L26.0643 6.89478L22.7737 7.10371L19.9531 7.36488L17.8115 7.62604L15.461 7.99167L12.9538 8.46177L11.5958 8.77517L9.71537 9.40197L9.03634 9.66313L8.61847 9.87207V9.97653L9.6109 10.3944L10.9167 10.8645L12.8494 11.3868L14.3119 11.7002L16.6101 12.0659L19.3785 12.4315L21.9379 12.6927L25.5942 12.9538L27.7358 13.0583L29.4073 13.1105H33.3248L35.9886 13.0583L39.4883 12.9016L41.5776 12.7449L45.8085 12.2748L48.159 11.9092L50.405 11.4913L51.8153 11.1257L53.0689 10.76L54.4792 10.2377L55.0537 9.97653V9.87207L53.9569 9.40197L52.2332 8.8274L50.5095 8.40954L48.3157 7.99167L46.0174 7.62604L43.5625 7.31264L40.6374 7.05148L37.4512 6.84254L34.3694 6.73808H31.3921ZM6.79031 16.6624V28.8327L6.99924 29.0416L7.83497 29.4595L8.87964 29.8774L9.71537 30.1908L11.5435 30.7131L14.5731 31.3399L17.3414 31.7578L19.7964 32.0712L23.1393 32.3846L26.6389 32.5935L29.0416 32.698L31.7055 32.7502H33.4292L36.3543 32.6457L39.5405 32.489L41.5254 32.3323L45.8085 31.8622L48.4724 31.4444L50.6139 31.0265L52.0765 30.7131L54.0613 30.1385L55.6283 29.564L56.7252 28.9894L56.8819 28.8327V16.6624L56.3073 16.8191L54.7404 17.2892L53.0689 17.707L50.8751 18.1771L48.8902 18.5428L45.9129 18.9606L42.0477 19.3785L39.8539 19.5352L36.4587 19.6919L33.1158 19.7964H29.1983L26.2733 19.6919L23.296 19.5352L18.4905 19.0651L16.1923 18.7517L13.2672 18.2816L10.8123 17.7593L8.72294 17.2369L7.05148 16.7146L6.79031 16.6624ZM6.79031 36.302V48.4201L6.99924 48.6291L8.40954 49.3081L9.55867 49.726L11.2824 50.2483L13.5284 50.7706L15.1998 51.084L18.4905 51.5541L20.7888 51.8153L23.1393 52.0242L26.6389 52.2332L29.0416 52.3376L31.7055 52.3899H33.4292L36.3543 52.2854L39.5405 52.1287L41.5254 51.972L45.8085 51.5019L48.4724 51.084L50.6139 50.6662L52.3899 50.2483L53.9046 49.7782L55.0015 49.4126L56.0462 48.9425L56.8297 48.5246L56.8819 48.4724V36.302L56.2551 36.4587L53.8524 37.1378L51.8675 37.6079L50.0916 37.9735L47.8456 38.3391L45.4428 38.6525L42.0477 39.0182L39.8539 39.1749L35.2052 39.3838H27.4746L23.3482 39.1749L18.9606 38.757L16.9235 38.4958L13.5284 37.9735L11.2824 37.5034L9.03634 36.9288L7.05148 36.3543L6.79031 36.302Z" fill="#EC1F27"/>
<path d="M48.7404 62.8365L49.5761 62.8887L50.4641 63.2021L51.0387 63.5678L51.4043 63.9334L51.8222 64.299L52.24 64.7691L52.5534 65.0303L52.9191 65.4481L53.7026 66.2316L54.1204 66.5973L54.2771 66.7017L55.583 65.3959H55.6874L55.7919 65.187L57.1499 63.8289L57.6723 63.4111L58.4035 63.0454L58.9259 62.8887L59.6049 62.8365L60.4929 62.941L61.1719 63.2021L61.7465 63.5678L62.2688 64.0901L62.6344 64.6646L62.8434 65.187L62.9478 65.6048L63.0001 66.3361L62.8956 67.0674L62.6867 67.6419L62.3733 68.1643L61.9554 68.6866H61.8509V68.7911H61.7465V68.8955H61.642V69H61.5375V69.1045H61.4331V69.2089H61.3286V69.3134H61.2241V69.4179H61.1197V69.5223H61.0152V69.6268H60.9107V69.7313H60.8063V69.8357H60.7018V69.9402H60.5973V70.0447H60.4929V70.1491H60.3884V70.2536H60.2839V70.3581H60.1795V70.4625H60.075V70.567H59.9705V70.6715H59.8661L59.7616 70.8804H59.6571L59.5527 71.0893H59.4482L59.3437 71.2983L59.0826 71.5072L59.187 71.7161L61.8509 74.38L62.321 74.9546L62.6867 75.5291L62.9478 76.3126L63.0001 77.1484L62.8434 77.9319L62.5822 78.5587L62.2166 79.081L61.7987 79.4989L61.2241 79.8645L60.5973 80.1257L59.8661 80.2824H59.3437L58.508 80.1257L57.7767 79.76L57.0977 79.1855L54.3294 76.4171L54.1204 76.5216L53.8593 76.7305L53.807 76.835H53.7026V76.9394H53.5981V77.0439H53.4936V77.1484H53.3892V77.2528L53.0235 77.5662L52.9713 77.6707H52.8668V77.7752H52.7624V77.8796L52.5534 78.0886H52.449V78.193H52.3445V78.2975H52.24V78.402H52.1356V78.5064H52.0311V78.6109H51.9266V78.7154H51.8222V78.8198H51.7177V78.9243H51.6132V79.0288L51.1954 79.3944L50.5163 79.8645L49.8895 80.1257L49.1583 80.2824H48.5315L47.6957 80.0734L47.0689 79.76L46.3899 79.1855L46.0243 78.7154L45.7109 78.0886L45.5542 77.514L45.502 76.7305L45.6587 75.947L45.9198 75.3202L46.3899 74.6934L47.0167 74.0144L49.4194 71.6117L49.315 71.4027L46.2855 68.3732L45.9198 67.8509L45.6064 67.1196L45.502 66.4928V66.0227L45.6587 65.187L45.9198 64.5602L46.2332 64.0901L46.8078 63.5155L47.3301 63.2021L48.0091 62.941L48.7404 62.8365Z" fill="#EC1F27"/>
</svg>
