<svg width="38" height="38" viewBox="0 0 38 38" fill="none" xmlns="http://www.w3.org/2000/svg">
<path d="M26.2708 1.44654C26.558 1.56523 26.842 1.69134 27.1239 1.82486C27.4048 1.95733 27.6824 2.09722 27.9569 2.24346C28.2303 2.39076 28.5016 2.54337 28.7676 2.70339C29.0346 2.86341 29.2975 3.02978 29.556 3.20252C29.8146 3.37526 30.0689 3.55435 30.318 3.73981C30.5681 3.9242 30.8129 4.11601 31.0534 4.31312C31.294 4.51024 31.5293 4.7137 31.7592 4.92247C31.9902 5.13124 32.2149 5.34531 32.4353 5.56573C32.6547 5.7851 32.8688 6.01082 33.0775 6.24078C33.2863 6.47075 33.4898 6.70601 33.6869 6.94657C33.884 7.18713 34.0758 7.43193 34.2613 7.68202C34.4456 7.93212 34.6247 8.1854 34.7975 8.44397C34.9702 8.70255 35.1366 8.96536 35.2966 9.23242C35.4566 9.49947 35.6103 9.7697 35.7565 10.0442C35.9028 10.3176 36.0427 10.5952 36.1762 10.8771C36.3087 11.158 36.4348 11.442 36.5535 11.7292C36.6722 12.0163 36.7845 12.3067 36.8894 12.5992C36.9943 12.8917 37.0918 13.1874 37.1819 13.4851C37.272 13.7829 37.3546 14.0818 37.4309 14.3838C37.5062 14.6848 37.574 14.9889 37.6344 15.293C37.6959 15.5982 37.7488 15.9045 37.7944 16.2118C37.84 16.5202 37.8781 16.8286 37.9089 17.138C37.9385 17.4475 37.9618 17.7569 37.9767 18.0674C37.9926 18.379 38 18.6895 38 19C38 19.3116 37.9926 19.6221 37.9767 19.9326C37.9618 20.2431 37.9385 20.5536 37.9089 20.863C37.8781 21.1725 37.84 21.4808 37.7944 21.7882C37.7488 22.0955 37.6959 22.4018 37.6344 22.707C37.574 23.0122 37.5062 23.3152 37.4309 23.6173C37.3546 23.9182 37.272 24.2181 37.1819 24.5159C37.0918 24.8127 36.9943 25.1083 36.8894 25.4008C36.7845 25.6933 36.6722 25.9837 36.5535 26.2708C36.4348 26.558 36.3087 26.842 36.1762 27.1239C36.0427 27.4048 35.9028 27.6824 35.7565 27.9569C35.6103 28.2314 35.4566 28.5016 35.2966 28.7676C35.1366 29.0346 34.9702 29.2975 34.7975 29.556C34.6247 29.8146 34.4456 30.0689 34.2613 30.318C34.0758 30.5681 33.884 30.8129 33.6869 31.0534C33.4898 31.294 33.2863 31.5293 33.0775 31.7592C32.8688 31.9902 32.6547 32.2149 32.4353 32.4353C32.2149 32.6547 31.9902 32.8698 31.7592 33.0786C31.5293 33.2874 31.294 33.4898 31.0534 33.6869C30.8129 33.884 30.5681 34.0758 30.318 34.2613C30.0689 34.4467 29.8146 34.6247 29.556 34.7975C29.2975 34.9702 29.0346 35.1366 28.7676 35.2966C28.5016 35.4566 28.2303 35.6103 27.9569 35.7565C27.6824 35.9028 27.4048 36.0427 27.1239 36.1762C26.842 36.3087 26.558 36.4348 26.2708 36.5535C25.9837 36.6732 25.6933 36.7845 25.4008 36.8894C25.1083 36.9943 24.8127 37.0918 24.5159 37.1819C24.2181 37.272 23.9182 37.3546 23.6162 37.4309C23.3152 37.5062 23.0122 37.574 22.707 37.6355C22.4018 37.6959 22.0955 37.7488 21.7882 37.7944C21.4808 37.84 21.1714 37.8781 20.862 37.9089C20.5525 37.9385 20.2431 37.9618 19.9326 37.9767C19.6221 37.9926 19.3105 38 19 38C18.6895 38 18.3779 37.9926 18.0674 37.9767C17.7569 37.9618 17.4475 37.9385 17.138 37.9089C16.8286 37.8781 16.5202 37.84 16.2118 37.7944C15.9045 37.7488 15.5982 37.6959 15.293 37.6355C14.9889 37.574 14.6848 37.5062 14.3838 37.4309C14.0818 37.3546 13.7819 37.272 13.4851 37.1819C13.1874 37.0918 12.8917 36.9943 12.5992 36.8894C12.3067 36.7845 12.0163 36.6732 11.7292 36.5535C11.442 36.4348 11.158 36.3087 10.8771 36.1762C10.5952 36.0427 10.3176 35.9028 10.0431 35.7565C9.7697 35.6103 9.49841 35.4566 9.23242 35.2966C8.96536 35.1366 8.70255 34.9702 8.44397 34.7975C8.1854 34.6247 7.93212 34.4467 7.68202 34.2613C7.43193 34.0758 7.18713 33.884 6.94657 33.6869C6.70601 33.4898 6.47075 33.2874 6.24078 33.0786C6.00976 32.8698 5.7851 32.6547 5.56467 32.4353C5.34531 32.2149 5.13124 31.9902 4.92247 31.7592C4.7137 31.5293 4.51023 31.294 4.31312 31.0534C4.11601 30.8129 3.9242 30.5681 3.73981 30.318C3.55435 30.0689 3.37526 29.8146 3.20252 29.556C3.02978 29.2975 2.86341 29.0346 2.70339 28.7676C2.54337 28.5016 2.39076 28.2314 2.24346 27.9569C2.09722 27.6824 1.95733 27.4048 1.82486 27.1239C1.69134 26.842 1.56523 26.558 1.44654 26.2708C1.32785 25.9837 1.21552 25.6933 1.1106 25.4008C1.00569 25.1083 0.908193 24.8127 0.818116 24.5159C0.728038 24.2181 0.645379 23.9182 0.570138 23.6173C0.493837 23.3152 0.426014 23.0122 0.365609 22.707C0.305204 22.4018 0.251157 22.0955 0.205589 21.7882C0.16002 21.4808 0.12187 21.1725 0.092197 20.863C0.0614645 20.5536 0.0381503 20.2431 0.0233142 19.9326C0.00741808 19.6221 0 19.3116 0 19C0 18.6895 0.00741808 18.379 0.0233142 18.0674C0.0381503 17.7569 0.0614645 17.4475 0.092197 17.138C0.12187 16.8286 0.16002 16.5202 0.205589 16.2118C0.251157 15.9045 0.305204 15.5982 0.365609 15.293C0.426014 14.9889 0.493837 14.6848 0.570138 14.3838C0.645379 14.0818 0.728038 13.7829 0.818116 13.4851C0.908193 13.1874 1.00569 12.8917 1.1106 12.5992C1.21552 12.3067 1.32785 12.0163 1.44654 11.7292C1.56523 11.442 1.69134 11.158 1.82486 10.8771C1.95733 10.5952 2.09722 10.3176 2.24346 10.0442C2.39076 9.7697 2.54337 9.49947 2.70339 9.23242C2.86341 8.96536 3.02978 8.70255 3.20252 8.44397C3.37526 8.18646 3.55435 7.93212 3.73981 7.68202C3.9242 7.43193 4.11601 7.18713 4.31312 6.94657C4.51023 6.70601 4.7137 6.47075 4.92247 6.24078C5.13124 6.01082 5.34531 5.7851 5.56467 5.56573C5.7851 5.34531 6.00976 5.13124 6.24078 4.92247C6.47075 4.7137 6.70601 4.51024 6.94657 4.31312C7.18713 4.11601 7.43193 3.9242 7.68202 3.73981C7.93212 3.55435 8.1854 3.37526 8.44397 3.20252C8.70255 3.02978 8.96536 2.86341 9.23242 2.70339C9.49841 2.54337 9.7697 2.39076 10.0431 2.24346C10.3176 2.09722 10.5952 1.95733 10.8771 1.82486C11.158 1.69134 11.442 1.56523 11.7292 1.44654C12.0163 1.32785 12.3067 1.21552 12.5992 1.1106C12.8917 1.00675 13.1874 0.909253 13.4851 0.818116C13.7819 0.728038 14.0818 0.645379 14.3838 0.570138C14.6848 0.493837 14.9889 0.426014 15.293 0.365609C15.5982 0.305204 15.9045 0.251157 16.2118 0.205589C16.5202 0.16002 16.8286 0.12187 17.138 0.092197C17.4475 0.0614647 17.7569 0.0381503 18.0674 0.0233142C18.3779 0.00847802 18.6895 0 19 0C19.3105 0 19.6221 0.00847802 19.9326 0.0233142C20.2431 0.0381503 20.5525 0.0614647 20.862 0.092197C21.1714 0.12187 21.4808 0.16002 21.7882 0.205589C22.0955 0.251157 22.4018 0.305204 22.707 0.365609C23.0122 0.426014 23.3152 0.493837 23.6162 0.570138C23.9182 0.645379 24.2181 0.728038 24.5159 0.818116C24.8127 0.909253 25.1083 1.00675 25.4008 1.1106C25.6933 1.21552 25.9837 1.32785 26.2708 1.44654Z" fill="black"/>
<path d="M24.4109 10.0484C24.4109 13.0369 21.9883 15.4594 18.9999 15.4594C16.0114 15.4594 13.5889 13.0369 13.5889 10.0484C13.5889 7.05889 16.0114 4.63739 18.9999 4.63739C21.9883 4.63739 24.4109 7.05783 24.4109 10.0484Z" fill="white"/>
<path d="M18.9997 17.3097C13.4541 17.3097 8.95874 21.8051 8.95874 27.3507C8.95874 28.8068 10.1382 29.9863 11.5932 29.9863H26.4062C27.8612 29.9863 29.0407 28.8068 29.0407 27.3507C29.0407 21.8051 24.5453 17.3097 18.9997 17.3097Z" fill="white"/>
</svg>
