<svg width="26" height="16" viewBox="0 0 26 16" fill="none" xmlns="http://www.w3.org/2000/svg">
<path d="M5.77778 3.2V0H26V3.2H5.77778ZM5.77778 9.6V6.4H26V9.6H5.77778ZM5.77778 16V12.8H26V16H5.77778ZM1.44444 3.2C1.03519 3.2 0.69213 3.04667 0.415278 2.74C0.138426 2.43333 0 2.05333 0 1.6C0 1.14667 0.138426 0.766667 0.415278 0.46C0.69213 0.153333 1.03519 0 1.44444 0C1.8537 0 2.19676 0.153333 2.47361 0.46C2.75046 0.766667 2.88889 1.14667 2.88889 1.6C2.88889 2.05333 2.75046 2.43333 2.47361 2.74C2.19676 3.04667 1.8537 3.2 1.44444 3.2ZM1.44444 9.6C1.03519 9.6 0.69213 9.44667 0.415278 9.14C0.138426 8.83333 0 8.45333 0 8C0 7.54667 0.138426 7.16667 0.415278 6.86C0.69213 6.55333 1.03519 6.4 1.44444 6.4C1.8537 6.4 2.19676 6.55333 2.47361 6.86C2.75046 7.16667 2.88889 7.54667 2.88889 8C2.88889 8.45333 2.75046 8.83333 2.47361 9.14C2.19676 9.44667 1.8537 9.6 1.44444 9.6ZM1.44444 16C1.03519 16 0.69213 15.8467 0.415278 15.54C0.138426 15.2333 0 14.8533 0 14.4C0 13.9467 0.138426 13.5667 0.415278 13.26C0.69213 12.9533 1.03519 12.8 1.44444 12.8C1.8537 12.8 2.19676 12.9533 2.47361 13.26C2.75046 13.5667 2.88889 13.9467 2.88889 14.4C2.88889 14.8533 2.75046 15.2333 2.47361 15.54C2.19676 15.8467 1.8537 16 1.44444 16Z" fill="url(#paint0_linear_642_813)"/>
<defs>
<linearGradient id="paint0_linear_642_813" x1="13" y1="0" x2="13" y2="16" gradientUnits="userSpaceOnUse">
<stop stop-color="#EC1F27"/>
<stop offset="1" stop-color="#770000"/>
</linearGradient>
</defs>
</svg>
