<svg width="35" height="35" viewBox="0 0 35 35" fill="none" xmlns="http://www.w3.org/2000/svg">
<mask id="mask0_156_548" style="mask-type:luminance" maskUnits="userSpaceOnUse" x="0" y="0" width="35" height="35">
<path d="M0 0H35V35H0V0Z" fill="white"/>
</mask>
<g mask="url(#mask0_156_548)">
<path d="M33.7248 20.237C34.4116 20.237 34.9735 19.6751 34.9735 18.9888V15.9696C34.9735 15.2828 34.4116 14.7213 33.7248 14.7213H32.4287C31.742 14.7213 31.0155 14.184 30.8132 13.5278L29.7067 10.8422C29.3822 10.237 29.5139 9.34466 29.9993 8.85931L30.9166 7.94192C31.402 7.45612 31.4024 6.66178 30.9166 6.17597L28.782 4.04134C28.2966 3.55553 27.5019 3.55553 27.0165 4.04134L26.0987 4.95918C25.6129 5.44453 24.7205 5.57578 24.1158 5.25084L21.4302 4.14524C20.7739 3.94336 20.2371 3.21601 20.2371 2.52968V1.23313C20.2371 0.54635 19.6752 -0.015564 18.9884 -0.015564H15.9696C15.2828 -0.015564 14.7209 0.54635 14.7209 1.23313V2.52968C14.7209 3.21601 14.1836 3.94336 13.5278 4.14524L10.8422 5.25084C10.237 5.57578 9.34469 5.44453 8.8598 4.95872L7.94196 4.04088C7.45615 3.55553 6.66182 3.55553 6.17601 4.04088L4.04183 6.17552C3.55602 6.66132 3.55602 7.45566 4.04183 7.94147L4.95967 8.85885C5.44548 9.34466 5.57627 10.237 5.25179 10.8422L4.14574 13.5278C3.94385 14.184 3.21696 14.7209 2.53018 14.7209H1.23408C0.547298 14.7209 -0.0141602 15.2828 -0.0141602 15.9691V18.9888C-0.0141602 19.6751 0.547298 20.237 1.23408 20.237H2.53018C3.21696 20.237 3.94385 20.7739 4.14574 21.4301L5.25225 24.1162C5.57718 24.721 5.44593 25.6137 4.96012 26.0991L4.04183 27.0169C3.55648 27.5023 3.55648 28.2966 4.04183 28.7824L6.17601 30.9171C6.66182 31.4024 7.45615 31.4019 7.94196 30.9171L8.86025 29.9988C9.3456 29.5134 10.2379 29.3822 10.8427 29.7071L13.5283 30.8131C14.1845 31.015 14.7214 31.7419 14.7214 32.4287V33.7253C14.7214 34.412 15.2833 34.974 15.9701 34.974H18.9888C19.6756 34.974 20.2375 34.412 20.2375 33.7253V32.4282C20.2375 31.7419 20.7744 31.015 21.4306 30.8127L24.1162 29.7071C24.7205 29.3822 25.6133 29.513 26.0987 29.9988L27.017 30.9171C27.5023 31.4024 28.2971 31.4019 28.7825 30.9171L30.9171 28.7824C31.4024 28.2971 31.4029 27.5023 30.9171 27.0165L29.9993 26.0991C29.5139 25.6133 29.3826 24.7205 29.7071 24.1157L30.8132 21.4301C31.0151 20.7739 31.742 20.237 32.4292 20.237H33.7248ZM17.479 24.6763C13.5041 24.6763 10.2817 21.4538 10.2817 17.479C10.2817 13.5041 13.5041 10.2816 17.479 10.2816C21.4539 10.2816 24.6768 13.5041 24.6768 17.479C24.6768 21.4538 21.4539 24.6763 17.479 24.6763Z" fill="black"/>
</g>
</svg>
