<svg width="23" height="25" viewBox="0 0 23 25" fill="none" xmlns="http://www.w3.org/2000/svg">
<path d="M0 22.6562C0 23.9502 1.10379 25 2.46429 25H20.5357C21.8962 25 23 23.9502 23 22.6562V9.375H0V22.6562ZM16.4286 13.0859C16.4286 12.7637 16.7058 12.5 17.0446 12.5H19.0982C19.4371 12.5 19.7143 12.7637 19.7143 13.0859V15.0391C19.7143 15.3613 19.4371 15.625 19.0982 15.625H17.0446C16.7058 15.625 16.4286 15.3613 16.4286 15.0391V13.0859ZM16.4286 19.3359C16.4286 19.0137 16.7058 18.75 17.0446 18.75H19.0982C19.4371 18.75 19.7143 19.0137 19.7143 19.3359V21.2891C19.7143 21.6113 19.4371 21.875 19.0982 21.875H17.0446C16.7058 21.875 16.4286 21.6113 16.4286 21.2891V19.3359ZM9.85714 13.0859C9.85714 12.7637 10.1344 12.5 10.4732 12.5H12.5268C12.8656 12.5 13.1429 12.7637 13.1429 13.0859V15.0391C13.1429 15.3613 12.8656 15.625 12.5268 15.625H10.4732C10.1344 15.625 9.85714 15.3613 9.85714 15.0391V13.0859ZM9.85714 19.3359C9.85714 19.0137 10.1344 18.75 10.4732 18.75H12.5268C12.8656 18.75 13.1429 19.0137 13.1429 19.3359V21.2891C13.1429 21.6113 12.8656 21.875 12.5268 21.875H10.4732C10.1344 21.875 9.85714 21.6113 9.85714 21.2891V19.3359ZM3.28571 13.0859C3.28571 12.7637 3.56295 12.5 3.90179 12.5H5.95536C6.2942 12.5 6.57143 12.7637 6.57143 13.0859V15.0391C6.57143 15.3613 6.2942 15.625 5.95536 15.625H3.90179C3.56295 15.625 3.28571 15.3613 3.28571 15.0391V13.0859ZM3.28571 19.3359C3.28571 19.0137 3.56295 18.75 3.90179 18.75H5.95536C6.2942 18.75 6.57143 19.0137 6.57143 19.3359V21.2891C6.57143 21.6113 6.2942 21.875 5.95536 21.875H3.90179C3.56295 21.875 3.28571 21.6113 3.28571 21.2891V19.3359ZM20.5357 3.125H18.0714V0.78125C18.0714 0.351562 17.7018 0 17.25 0H15.6071C15.1554 0 14.7857 0.351562 14.7857 0.78125V3.125H8.21429V0.78125C8.21429 0.351562 7.84464 0 7.39286 0H5.75C5.29821 0 4.92857 0.351562 4.92857 0.78125V3.125H2.46429C1.10379 3.125 0 4.1748 0 5.46875V7.8125H23V5.46875C23 4.1748 21.8962 3.125 20.5357 3.125Z" fill="url(#paint0_linear_220_441)"/>
<defs>
<linearGradient id="paint0_linear_220_441" x1="11.5" y1="0" x2="11.5" y2="25" gradientUnits="userSpaceOnUse">
<stop stop-color="#FBD01E"/>
<stop offset="1" stop-color="white"/>
</linearGradient>
</defs>
</svg>
