<svg width="23" height="25" viewBox="0 0 23 25" fill="none" xmlns="http://www.w3.org/2000/svg">
<mask id="mask0_220_380" style="mask-type:luminance" maskUnits="userSpaceOnUse" x="8" y="22" width="6" height="3">
<path d="M8.40186 22.7872H13.9557V25H8.40186V22.7872Z" fill="white"/>
</mask>
<g mask="url(#mask0_220_380)">
<path d="M12.9491 22.7966H8.45361C8.67523 24.0458 9.8181 25 11.1911 25C12.5648 25 13.7077 24.0458 13.9293 22.7966H12.9491Z" fill="url(#paint0_linear_220_380)"/>
</g>
<mask id="mask1_220_380" style="mask-type:luminance" maskUnits="userSpaceOnUse" x="8" y="0" width="6" height="3">
<path d="M8.56689 0H13.8402V2.5739H8.56689V0Z" fill="white"/>
</mask>
<g mask="url(#mask1_220_380)">
<path d="M9.57938 2.31205C10.1015 2.21015 10.6399 2.15616 11.1903 2.15616C11.7415 2.15616 12.2807 2.21015 12.802 2.31205C12.9704 2.34512 13.1366 2.38224 13.3006 2.42543C13.4654 2.46794 13.6274 2.51653 13.7879 2.5685C13.7588 1.15063 12.6053 0.006073 11.1903 0.006073C9.77613 0.006073 8.62261 1.15063 8.59277 2.5685C8.75401 2.51653 8.91596 2.46794 9.08075 2.42543C9.24483 2.38224 9.41104 2.34512 9.57938 2.31205Z" fill="url(#paint1_linear_220_380)"/>
</g>
<path d="M20.8365 19.3487C20.2008 18.7778 19.5437 18.1873 19.0153 17.3748C18.1594 16.0568 18.6892 11.2032 18.7042 11.0662L18.6985 11.0291L18.6999 10.9886C18.7027 10.8996 18.7042 10.8172 18.7042 10.7376C18.7042 7.42135 16.6315 4.59101 13.7392 3.52339C13.5829 3.46603 13.4245 3.41339 13.264 3.36615C13.1063 3.32026 12.9472 3.27977 12.7859 3.244C12.2717 3.12995 11.7375 3.06921 11.1899 3.06921C10.643 3.06921 10.1095 3.12995 9.59456 3.244C9.43332 3.27977 9.27421 3.32026 9.11652 3.36615C8.956 3.41339 8.7976 3.46603 8.64204 3.52339C5.74899 4.59101 3.67633 7.42135 3.67633 10.7376C3.67633 10.8172 3.67776 10.8996 3.6806 10.9886L3.68202 11.0291L3.67633 11.0662C3.69267 11.2107 4.22042 16.0581 3.36451 17.3748C2.83676 18.1873 2.17973 18.7778 1.54401 19.3487C1.22864 19.6329 0.865677 20.1957 0.620623 20.7828C0.378411 21.3612 0.342896 21.7337 0.364915 21.8835H22.0653C22.093 21.7512 22.061 21.3794 21.7954 20.7821C21.5375 20.2038 21.1611 19.6409 20.8365 19.3487Z" fill="url(#paint2_linear_220_380)"/>
<defs>
<linearGradient id="paint0_linear_220_380" x1="11.1915" y1="22.7966" x2="11.1915" y2="25" gradientUnits="userSpaceOnUse">
<stop stop-color="#FBD01E" stop-opacity="0.85"/>
<stop offset="1" stop-color="white"/>
</linearGradient>
<linearGradient id="paint1_linear_220_380" x1="11.1903" y1="0.006073" x2="11.1903" y2="2.5685" gradientUnits="userSpaceOnUse">
<stop stop-color="#FBD01E" stop-opacity="0.85"/>
<stop offset="1" stop-color="white"/>
</linearGradient>
<linearGradient id="paint2_linear_220_380" x1="11.2164" y1="3.06921" x2="11.2164" y2="21.8835" gradientUnits="userSpaceOnUse">
<stop stop-color="#FBD01E" stop-opacity="0.85"/>
<stop offset="1" stop-color="white"/>
</linearGradient>
</defs>
</svg>
